<svg width="24" height="30" viewBox="0 0 24 30" fill="none" xmlns="http://www.w3.org/2000/svg">
<path d="M12.7447 5.58902L10.7705 5.58498C6.26727 5.57421 2.35791 9.23309 2.32694 13.665V18.7688C2.32694 19.8327 2.19227 20.871 1.61186 21.7557L1.22537 22.3455C0.636878 23.2397 1.26981 24.4383 2.32694 24.4383H21.2206C22.2777 24.4383 22.9093 23.2397 22.3222 22.3455L21.9357 21.7557C21.3566 20.871 21.2206 19.8313 21.2206 18.7675V13.6663C21.1667 9.23309 17.248 5.5998 12.7447 5.58902V5.58902Z" stroke="black" stroke-width="2" stroke-linecap="round" stroke-linejoin="round"/>
<path d="M15.8139 24.438C15.8139 25.5095 15.3882 26.537 14.6306 27.2947C13.8729 28.0523 12.8453 28.478 11.7739 28.478C10.7024 28.478 9.67482 28.0523 8.91717 27.2947C8.15953 26.537 7.73389 25.5095 7.73389 24.438" stroke="black" stroke-width="2" stroke-linecap="round" stroke-linejoin="round"/>
<path d="M11.7734 1.54492C12.4877 1.54492 13.1728 1.82868 13.6779 2.33378C14.183 2.83887 14.4667 3.52393 14.4667 4.23825V5.58491H9.08008V4.23825C9.08008 3.52393 9.36384 2.83887 9.86894 2.33378C10.374 1.82868 11.0591 1.54492 11.7734 1.54492Z" stroke="black" stroke-width="2" stroke-linecap="round" stroke-linejoin="round"/>
</svg>
