<svg width="40" height="40" viewBox="0 0 40 40" fill="none" xmlns="http://www.w3.org/2000/svg">
<path d="M0 35.7751V4.60267C0.0300927 4.54834 0.0547372 4.49129 0.0735873 4.43231C0.178678 3.75833 0.443538 3.11771 0.847016 2.5616C1.25049 2.0055 1.78141 1.54933 2.39737 1.22951C2.9359 0.988479 3.49268 0.788496 4.06274 0.631348H35.9528C36.0083 0.660763 36.0667 0.684853 36.127 0.703279C37.2072 0.881749 38.1882 1.42747 38.8968 2.24414C39.6054 3.0608 39.9962 4.09591 40 5.16676C40 15.184 40 25.2013 40 35.2186C39.9949 36.4169 39.5057 37.5647 38.6388 38.4121C37.7719 39.2594 36.5977 39.7377 35.3718 39.7427C25.1239 39.7427 14.8761 39.7427 4.62819 39.7427C3.90151 39.7478 3.18418 39.5824 2.5365 39.2603C1.88883 38.9381 1.32975 38.4687 0.906273 37.8914C0.45629 37.2556 0.147569 36.5347 0 35.7751ZM26.433 36.6913H35.0542C36.2665 36.6913 36.89 36.0893 36.89 34.9082V5.46206C36.89 4.29981 36.2665 3.6865 35.0891 3.6865H4.92641C3.76452 3.6865 3.12548 4.29981 3.12548 5.46206V34.9082C3.12548 36.0856 3.74516 36.6913 4.9574 36.6913H21.5414V24.2246H16.8939V19.4847H21.5414C21.5414 19.2879 21.5414 19.1364 21.5414 18.985C21.5686 17.713 21.5143 16.4334 21.6383 15.1727C21.9326 12.2576 24.6476 9.58103 27.6375 9.28952C29.0318 9.15323 30.4454 9.22137 31.8513 9.20245C31.8706 9.20245 31.89 9.22895 31.9132 9.24409V13.9234H31.5259C30.6274 13.9234 29.7289 13.9234 28.8149 13.9234C27.591 13.9234 26.5724 14.6351 26.4911 15.7065C26.3788 16.9482 26.464 18.2127 26.464 19.4923H32.0256L31.2239 24.2359H26.433V36.6913Z" fill="white"/>
</svg>
