<svg width="30" height="22" viewBox="0 0 30 22" fill="none" xmlns="http://www.w3.org/2000/svg">
<path d="M15.0002 21.9976C11.1889 21.9976 7.37759 21.9976 3.56628 21.9976C1.81023 21.9976 0.450958 20.9281 0.0891676 19.2693C0.0291412 18.975 0.000535624 18.675 0.00383975 18.3745C-0.00127992 13.4582 -0.00127992 8.54196 0.00383975 3.62569C0.00383975 1.83091 1.05508 0.455147 2.71044 0.0894806C3.00236 0.028993 3.29985 0.000149416 3.59785 0.00344156C11.1994 -0.00114719 18.801 -0.00114719 26.4026 0.00344156C28.5358 0.00344156 29.9957 1.47815 29.9974 3.62655C30.0009 8.54282 30.0009 13.4588 29.9974 18.3745C29.9974 20.5255 28.5332 21.9967 26.4026 21.9985C22.6021 22.0008 18.8013 22.0005 15.0002 21.9976ZM28.6245 9.98742H17.7316C17.7316 10.7119 17.7316 11.4174 17.7316 12.1229C17.7316 12.9222 17.3732 13.1898 16.6163 12.9609C16.3416 12.8749 16.0651 12.8 15.7298 12.7028C16.1564 13.7774 16.5506 14.7677 16.9414 15.7658C17.1974 16.4128 16.903 16.843 16.2042 16.8447C15.1717 16.8482 14.1393 16.8482 13.1068 16.8447C12.6272 16.8447 12.4446 16.7157 12.2637 16.2605C11.8729 15.2762 11.483 14.2917 11.0939 13.3068C11.0529 13.2036 11.0026 13.1055 10.9343 12.9558V20.6012C11.0299 20.6064 11.105 20.6132 11.1775 20.6132C16.2864 20.6132 21.395 20.6132 26.5033 20.6132C26.6838 20.6171 26.8642 20.6001 27.0408 20.5625C28.0281 20.3276 28.622 19.53 28.6237 18.4339C28.6271 15.7305 28.6271 13.0266 28.6237 10.3221L28.6245 9.98742ZM28.6245 8.58068V8.26147C28.6245 6.70588 28.6245 5.14944 28.6245 3.59299C28.6245 2.22755 27.7883 1.38695 26.4324 1.38695C21.3759 1.38695 16.3194 1.38695 11.2629 1.38695H10.913C10.913 2.87629 10.913 4.31228 10.9215 5.75085C10.9215 5.82484 11.0401 5.92293 11.1246 5.96595C11.5325 6.18879 11.9668 6.36861 12.3542 6.62157C12.553 6.75149 12.6955 6.80053 12.9242 6.72912C14.193 6.33248 15.467 5.95476 16.74 5.56931C17.2358 5.42132 17.6112 5.61405 17.7068 6.06145C17.7279 6.18819 17.7362 6.31676 17.7316 6.44519C17.7316 7.15071 17.7316 7.85709 17.7316 8.58154L28.6245 8.58068ZM4.73271 12.7106C4.5099 12.7609 4.28999 12.8235 4.07398 12.8981C3.11745 13.293 2.6601 12.9351 2.73006 11.8803C2.77188 11.2548 2.73774 10.6232 2.73774 9.99258H1.37591V10.3281C1.37591 13.0103 1.37591 15.6924 1.37591 18.3745C1.37591 19.7821 2.20189 20.6115 3.59444 20.6158C5.45743 20.6158 7.31985 20.6158 9.18171 20.6158C9.29519 20.6158 9.40782 20.6064 9.53326 20.6012V13.0332C9.45992 13.1093 9.404 13.2006 9.36943 13.3008C8.96838 14.3049 8.56479 15.3072 8.17484 16.3121C8.05367 16.6227 7.85059 16.8284 7.51866 16.8353C6.3693 16.8465 5.21993 16.8559 4.07142 16.831C3.57481 16.8206 3.30944 16.3629 3.47412 15.8845C3.52873 15.7219 3.59785 15.5653 3.66099 15.4062C4.00657 14.5286 4.35642 13.6475 4.72844 12.7071L4.73271 12.7106ZM2.7386 8.58842C2.7386 7.7917 2.7386 7.03025 2.7386 6.26537C2.7386 5.85496 2.9596 5.55985 3.30347 5.52715C3.46152 5.51717 3.62005 5.53671 3.77107 5.5848C5.04473 5.96337 6.31696 6.34768 7.58778 6.73772C7.77635 6.79537 7.89923 6.76439 8.07244 6.65168C8.46136 6.3954 8.87229 6.17482 9.30031 5.99262C9.49059 5.91174 9.56312 5.84463 9.56141 5.63814C9.55288 4.3183 9.56141 2.99846 9.55629 1.68034C9.55629 1.5943 9.5452 1.51343 9.53752 1.40588C9.42148 1.39985 9.31823 1.39039 9.21498 1.39039C7.33094 1.39039 5.44691 1.39039 3.56287 1.39039C2.21127 1.39039 1.38274 2.23443 1.38018 3.60418C1.38018 5.14944 1.38018 6.6947 1.38018 8.23996C1.38018 8.35267 1.39213 8.46625 1.3981 8.58842H2.7386ZM12.2714 9.28792C12.2722 9.01653 12.2198 8.74765 12.1171 8.49676C12.0145 8.24587 11.8637 8.01792 11.6734 7.82601C11.4831 7.63411 11.257 7.48204 11.0082 7.37854C10.7594 7.27505 10.4927 7.22219 10.2236 7.22298C9.95541 7.22468 9.69022 7.27961 9.44313 7.38464C9.19604 7.48968 8.97189 7.64276 8.78347 7.83515C8.59505 8.02754 8.44606 8.25546 8.34499 8.50591C8.24393 8.75635 8.19278 9.02442 8.19446 9.2948C8.19614 9.56518 8.25062 9.83258 8.35479 10.0817C8.45896 10.3309 8.61077 10.5569 8.80157 10.7469C8.99237 10.9369 9.2184 11.0871 9.46678 11.189C9.71516 11.2909 9.98101 11.3425 10.2492 11.3408C10.5156 11.3397 10.7793 11.2856 11.025 11.1816C11.2707 11.0776 11.4937 10.9257 11.6812 10.7347C11.8686 10.5437 12.0168 10.3173 12.1174 10.0684C12.218 9.81959 12.2688 9.55319 12.2672 9.28448L12.2714 9.28792ZM7.06643 8.01282L4.1064 7.11887V11.4458L7.06899 10.5501C6.73536 9.69144 6.75925 8.86288 7.0596 8.00938L7.06643 8.01282ZM16.3424 11.4432V7.12318L13.4003 8.01454C13.7271 8.86633 13.7075 9.70349 13.4088 10.5518L16.3424 11.4432ZM5.1073 15.4604C5.69692 15.4604 6.23704 15.4509 6.77631 15.4604C6.97769 15.4655 7.07496 15.401 7.14834 15.2083C7.50843 14.2696 7.88472 13.3369 8.2576 12.4017C8.29088 12.3156 8.31733 12.2296 8.33269 12.1823C8.04599 11.7374 7.69359 11.7357 7.28999 11.9087C7.08605 11.9947 6.85311 12.0179 6.65429 12.1143C6.50984 12.1812 6.39135 12.2943 6.31725 12.4361C5.99642 13.1941 5.70204 13.9641 5.39827 14.7299L5.1073 15.4604ZM15.3535 15.4604C15.0309 14.6482 14.6785 13.9117 14.4481 13.1373C14.2331 12.4146 13.8398 12.0386 13.1025 11.8751C12.6571 11.7762 12.3806 11.8381 12.1195 12.1926C12.5266 13.2199 12.9327 14.2575 13.35 15.284C13.3711 15.3279 13.4021 15.3664 13.4404 15.3962C13.4787 15.4261 13.5234 15.4466 13.571 15.4561C14.1444 15.4655 14.7178 15.4595 15.3535 15.4595V15.4604Z" fill="white"/>
</svg>
