<svg width="35" height="36" viewBox="0 0 35 36" fill="none" xmlns="http://www.w3.org/2000/svg">
<path d="M33.267 9.69377H26.994C27.572 8.78918 27.912 7.71551 27.912 6.56575C27.912 3.34897 25.2812 0.732422 22.047 0.732422C20.2875 0.732422 18.7022 1.5102 17.627 2.73604C16.5517 1.5102 14.9665 0.732422 13.207 0.732422C9.9727 0.732422 7.34195 3.34897 7.34195 6.56575C7.34195 7.71551 7.6777 8.78918 8.25995 9.69377H1.98695C1.2347 9.69377 0.626953 10.2982 0.626953 11.0464V19.5005C0.626953 19.6865 0.779953 19.8387 0.966953 19.8387H2.66695V34.3798C2.66695 35.128 3.2747 35.7324 4.02695 35.7324H31.227C31.9792 35.7324 32.587 35.128 32.587 34.3798V19.8387H34.287C34.474 19.8387 34.627 19.6865 34.627 19.5005V11.0464C34.627 10.2982 34.0192 9.69377 33.267 9.69377ZM19.072 6.56575C19.072 4.93411 20.4065 3.60682 22.047 3.60682C23.6875 3.60682 25.022 4.93411 25.022 6.56575C25.022 8.1974 23.6875 9.52469 22.047 9.52469H19.072V6.56575ZM13.207 3.60682C14.8475 3.60682 16.182 4.93411 16.182 6.56575V9.52469H13.207C11.5665 9.52469 10.232 8.1974 10.232 6.56575C10.232 4.93411 11.5665 3.60682 13.207 3.60682ZM3.51695 16.9643V12.5682H16.182V16.9643H3.51695ZM5.55695 19.8387H16.182V32.858H5.55695V19.8387ZM29.697 32.858H19.072V19.8387H29.697V32.858ZM31.737 16.9643H19.072V12.5682H31.737V16.9643Z" fill="black"/>
</svg>
