<svg width="35" height="31" viewBox="0 0 35 31" fill="none" xmlns="http://www.w3.org/2000/svg">
<path d="M16.8161 29.4916L16.2924 30.3435L16.2963 30.3459L16.8161 29.4916ZM18.4375 29.4916L18.9573 30.3459L18.9612 30.3435L18.4375 29.4916ZM17.6268 6.23242L16.8254 6.83054C17.0141 7.08345 17.3112 7.23242 17.6268 7.23242C17.9424 7.23242 18.2394 7.08345 18.4282 6.83054L17.6268 6.23242ZM9.71012 0.482422C4.79584 0.482422 0.793457 4.42927 0.793457 9.31992H2.79346C2.79346 5.5529 5.88125 2.48242 9.71012 2.48242V0.482422ZM0.793457 9.31992C0.793457 11.212 1.17186 14.3373 3.32445 18.0717C5.47375 21.8003 9.36038 26.0819 16.2924 30.3435L17.3398 28.6397C10.6346 24.5175 7.00992 20.4605 5.05719 17.0729C3.10776 13.6909 2.79346 10.9222 2.79346 9.31992H0.793457ZM16.2963 30.3459C16.6972 30.5898 17.1575 30.7188 17.6268 30.7188V28.7188C17.5242 28.7188 17.4236 28.6906 17.3359 28.6373L16.2963 30.3459ZM17.6268 30.7188C18.0961 30.7188 18.5563 30.5898 18.9573 30.3459L17.9177 28.6373C17.83 28.6906 17.7294 28.7188 17.6268 28.7188V30.7188ZM18.9612 30.3435C25.8932 26.0819 29.7798 21.8003 31.9291 18.0717C34.0817 14.3373 34.4601 11.212 34.4601 9.31992H32.4601C32.4601 10.9222 32.1458 13.6909 30.1964 17.0729C28.2437 20.4605 24.619 24.5175 17.9137 28.6397L18.9612 30.3435ZM34.4601 9.31992C34.4601 4.42927 30.4577 0.482422 25.5435 0.482422V2.48242C29.3723 2.48242 32.4601 5.5529 32.4601 9.31992H34.4601ZM25.5435 0.482422C23.0095 0.482422 20.8047 1.84667 19.3076 3.0875C18.5449 3.71969 17.9301 4.34958 17.5056 4.82138C17.2928 5.05793 17.1263 5.25644 17.0114 5.39793C16.9539 5.46872 16.9092 5.52536 16.878 5.56551C16.8624 5.58559 16.8502 5.60156 16.8414 5.61312C16.837 5.6189 16.8334 5.62358 16.8308 5.62712C16.8294 5.62889 16.8283 5.63038 16.8274 5.63158C16.827 5.63218 16.8266 5.63271 16.8262 5.63316C16.8261 5.63339 16.8259 5.63367 16.8258 5.63379C16.8256 5.63405 16.8254 5.6343 17.6268 6.23242C18.4282 6.83054 18.428 6.83075 18.4279 6.83095C18.4279 6.83099 18.4277 6.83117 18.4277 6.83125C18.4275 6.83142 18.4275 6.83151 18.4275 6.83153C18.4274 6.83158 18.4276 6.83135 18.428 6.83084C18.4288 6.82981 18.4304 6.82768 18.4328 6.82447C18.4377 6.81806 18.4459 6.80735 18.4573 6.79264C18.4802 6.76321 18.5159 6.71781 18.5639 6.65871C18.66 6.54043 18.8046 6.36785 18.9924 6.15908C19.3692 5.74026 19.9139 5.18266 20.5839 4.62734C21.9523 3.49318 23.7058 2.48242 25.5435 2.48242V0.482422ZM17.6268 6.23242C18.4282 5.6343 18.428 5.63405 18.4278 5.63379C18.4277 5.63367 18.4275 5.63339 18.4273 5.63316C18.427 5.63271 18.4266 5.63218 18.4262 5.63158C18.4253 5.63038 18.4241 5.62889 18.4228 5.62712C18.4201 5.62358 18.4166 5.6189 18.4122 5.61312C18.4034 5.60156 18.3912 5.58559 18.3756 5.56551C18.3444 5.52536 18.2997 5.46872 18.2422 5.39793C18.1273 5.25644 17.9608 5.05793 17.748 4.82138C17.3235 4.34958 16.7087 3.71969 15.9459 3.0875C14.4489 1.84667 12.2441 0.482422 9.71012 0.482422V2.48242C11.5478 2.48242 13.3013 3.49318 14.6697 4.62734C15.3396 5.18266 15.8843 5.74026 16.2612 6.15909C16.449 6.36785 16.5936 6.54043 16.6896 6.65871C16.7376 6.71781 16.7734 6.76321 16.7963 6.79264C16.8077 6.80735 16.8159 6.81806 16.8208 6.82447C16.8232 6.82768 16.8248 6.82981 16.8256 6.83084C16.826 6.83135 16.8262 6.83158 16.8261 6.83153C16.8261 6.83151 16.826 6.83142 16.8259 6.83125C16.8259 6.83117 16.8257 6.83099 16.8257 6.83095C16.8255 6.83075 16.8254 6.83054 17.6268 6.23242Z" fill="black"/>
</svg>
