<svg width="40" height="40" viewBox="0 0 40 40" fill="none" xmlns="http://www.w3.org/2000/svg">
<path d="M40 8.88048V31.4901C39.9478 31.737 39.8893 31.9829 39.8455 32.2309C39.1148 36.4412 35.1867 39.7259 30.8201 39.7331C23.6055 39.746 16.3916 39.746 9.1784 39.7331C8.76179 39.7339 8.34576 39.7028 7.9341 39.6402C5.71536 39.3008 3.69469 38.1949 2.23899 36.5233C0.783293 34.8516 -0.0109016 32.7251 0.000611815 30.5299C0.000611815 23.6427 0.000611815 16.7561 0.000611815 9.87029C-0.00437193 9.46357 0.0210975 9.05703 0.0768154 8.65394C0.63216 5.01918 2.69278 2.52934 6.17829 1.18748C6.89335 0.911965 7.67939 0.811963 8.43307 0.631348H31.5613C31.6445 0.663115 31.7304 0.687699 31.8181 0.704819C35.4278 1.12421 38.5824 3.7263 39.5991 7.14473C39.7672 7.71311 39.8685 8.3019 40 8.88048ZM3.11764 20.1868C3.11764 23.5882 3.11764 26.9866 3.11764 30.3819C3.11256 30.8018 3.14751 31.2214 3.22202 31.635C3.80973 34.635 6.33801 36.681 9.4686 36.683C16.487 36.6891 23.5053 36.6891 30.5237 36.683C34.0989 36.683 36.8663 33.9809 36.8715 30.4931C36.8798 23.6222 36.8798 16.7486 36.8715 9.87233C36.8684 6.40084 34.1063 3.69263 30.5612 3.69263C23.5157 3.68242 16.4713 3.68548 9.42789 3.70181C8.79127 3.70675 8.1586 3.80021 7.54891 3.97937C4.89432 4.75183 3.12808 7.10596 3.11972 9.84274C3.10929 13.2846 3.11764 16.7367 3.11764 20.1868Z" fill="white"/>
<path d="M19.9846 10.3019C25.5287 10.3274 30.0383 14.1704 30.1364 20.2399C30.2241 25.6338 25.6007 30.1003 20.0671 30.1135C14.4531 30.1268 9.79638 25.7114 9.85484 20.3021C9.9206 14.203 14.4479 10.3356 19.9846 10.3019ZM19.9742 27.0073C23.4879 27.0329 26.9024 24.6879 27.0141 20.1297C27.105 16.4418 23.8439 13.3224 20.0201 13.3102C16.1964 13.2979 12.927 16.3827 12.9823 20.0868C13.0491 24.6002 16.4261 27.0135 19.9742 27.0073Z" fill="white"/>
<path d="M32.9653 9.41314C32.9657 9.79059 32.8516 10.1597 32.6374 10.4737C32.4232 10.7878 32.1185 11.0327 31.7619 11.1774C31.4053 11.3222 31.0128 11.3603 30.6341 11.287C30.2553 11.2137 29.9073 11.0322 29.634 10.7656C29.3608 10.4989 29.1746 10.159 29.099 9.78883C29.0234 9.41868 29.0618 9.03494 29.2093 8.68612C29.3568 8.33731 29.6068 8.0391 29.9278 7.82921C30.2487 7.61932 30.6261 7.50719 31.0122 7.50698C31.2691 7.50454 31.5239 7.55215 31.7618 7.64703C31.9997 7.74192 32.2159 7.88219 32.3977 8.05964C32.5795 8.23709 32.7234 8.44817 32.8208 8.68056C32.9183 8.91295 32.9674 9.16199 32.9653 9.41314Z" fill="white"/>
</svg>
