<svg width="225" height="33" viewBox="0 0 225 33" fill="none" xmlns="http://www.w3.org/2000/svg">
<path d="M9 20C10.6569 20 12 18.6569 12 17C12 15.3431 10.6569 14 9 14C7.34315 14 6 15.3431 6 17C6 18.6569 7.34315 20 9 20Z" stroke="black" stroke-width="2" stroke-linecap="round" stroke-linejoin="round"/>
<path d="M9 9C6.87827 9 4.84344 9.84285 3.34315 11.3431C1.84285 12.8434 1 14.8783 1 17C1 18.892 1.402 20.13 2.5 21.5L9 29L15.5 21.5C16.598 20.13 17 18.892 17 17C17 14.8783 16.1571 12.8434 14.6569 11.3431C13.1566 9.84285 11.1217 9 9 9V9Z" stroke="black" stroke-width="2" stroke-linecap="round" stroke-linejoin="round"/>
<path d="M29.576 28.084C29.024 28.084 28.528 27.988 28.088 27.796C27.656 27.596 27.316 27.324 27.068 26.98C26.82 26.628 26.692 26.224 26.684 25.768H27.848C27.888 26.16 28.048 26.492 28.328 26.764C28.616 27.028 29.032 27.16 29.576 27.16C30.096 27.16 30.504 27.032 30.8 26.776C31.104 26.512 31.256 26.176 31.256 25.768C31.256 25.448 31.168 25.188 30.992 24.988C30.816 24.788 30.596 24.636 30.332 24.532C30.068 24.428 29.712 24.316 29.264 24.196C28.712 24.052 28.268 23.908 27.932 23.764C27.604 23.62 27.32 23.396 27.08 23.092C26.848 22.78 26.732 22.364 26.732 21.844C26.732 21.388 26.848 20.984 27.08 20.632C27.312 20.28 27.636 20.008 28.052 19.816C28.476 19.624 28.96 19.528 29.504 19.528C30.288 19.528 30.928 19.724 31.424 20.116C31.928 20.508 32.212 21.028 32.276 21.676H31.076C31.036 21.356 30.868 21.076 30.572 20.836C30.276 20.588 29.884 20.464 29.396 20.464C28.94 20.464 28.568 20.584 28.28 20.824C27.992 21.056 27.848 21.384 27.848 21.808C27.848 22.112 27.932 22.36 28.1 22.552C28.276 22.744 28.488 22.892 28.736 22.996C28.992 23.092 29.348 23.204 29.804 23.332C30.356 23.484 30.8 23.636 31.136 23.788C31.472 23.932 31.76 24.16 32 24.472C32.24 24.776 32.36 25.192 32.36 25.72C32.36 26.128 32.252 26.512 32.036 26.872C31.82 27.232 31.5 27.524 31.076 27.748C30.652 27.972 30.152 28.084 29.576 28.084ZM39.967 24.46C39.967 24.668 39.955 24.888 39.931 25.12H34.675C34.715 25.768 34.935 26.276 35.335 26.644C35.743 27.004 36.235 27.184 36.811 27.184C37.283 27.184 37.675 27.076 37.987 26.86C38.307 26.636 38.531 26.34 38.659 25.972H39.835C39.659 26.604 39.307 27.12 38.779 27.52C38.251 27.912 37.595 28.108 36.811 28.108C36.187 28.108 35.627 27.968 35.131 27.688C34.643 27.408 34.259 27.012 33.979 26.5C33.699 25.98 33.559 25.38 33.559 24.7C33.559 24.02 33.695 23.424 33.967 22.912C34.239 22.4 34.619 22.008 35.107 21.736C35.603 21.456 36.171 21.316 36.811 21.316C37.435 21.316 37.987 21.452 38.467 21.724C38.947 21.996 39.315 22.372 39.571 22.852C39.835 23.324 39.967 23.86 39.967 24.46ZM38.839 24.232C38.839 23.816 38.747 23.46 38.563 23.164C38.379 22.86 38.127 22.632 37.807 22.48C37.495 22.32 37.147 22.24 36.763 22.24C36.211 22.24 35.739 22.416 35.347 22.768C34.963 23.12 34.743 23.608 34.687 24.232H38.839ZM42.5004 19.12V28H41.4084V19.12H42.5004ZM50.3615 24.46C50.3615 24.668 50.3495 24.888 50.3255 25.12H45.0695C45.1095 25.768 45.3295 26.276 45.7295 26.644C46.1375 27.004 46.6295 27.184 47.2055 27.184C47.6775 27.184 48.0695 27.076 48.3815 26.86C48.7015 26.636 48.9255 26.34 49.0535 25.972H50.2295C50.0535 26.604 49.7015 27.12 49.1735 27.52C48.6455 27.912 47.9895 28.108 47.2055 28.108C46.5815 28.108 46.0215 27.968 45.5255 27.688C45.0375 27.408 44.6535 27.012 44.3735 26.5C44.0935 25.98 43.9535 25.38 43.9535 24.7C43.9535 24.02 44.0895 23.424 44.3615 22.912C44.6335 22.4 45.0135 22.008 45.5015 21.736C45.9975 21.456 46.5655 21.316 47.2055 21.316C47.8295 21.316 48.3815 21.452 48.8615 21.724C49.3415 21.996 49.7095 22.372 49.9655 22.852C50.2295 23.324 50.3615 23.86 50.3615 24.46ZM49.2335 24.232C49.2335 23.816 49.1415 23.46 48.9575 23.164C48.7735 22.86 48.5215 22.632 48.2015 22.48C47.8895 22.32 47.5415 22.24 47.1575 22.24C46.6055 22.24 46.1335 22.416 45.7415 22.768C45.3575 23.12 45.1375 23.608 45.0815 24.232H49.2335ZM51.3949 24.7C51.3949 24.02 51.5309 23.428 51.8029 22.924C52.0749 22.412 52.4509 22.016 52.9309 21.736C53.4189 21.456 53.9749 21.316 54.5989 21.316C55.4069 21.316 56.0709 21.512 56.5909 21.904C57.1189 22.296 57.4669 22.84 57.6349 23.536H56.4589C56.3469 23.136 56.1269 22.82 55.7989 22.588C55.4789 22.356 55.0789 22.24 54.5989 22.24C53.9749 22.24 53.4709 22.456 53.0869 22.888C52.7029 23.312 52.5109 23.916 52.5109 24.7C52.5109 25.492 52.7029 26.104 53.0869 26.536C53.4709 26.968 53.9749 27.184 54.5989 27.184C55.0789 27.184 55.4789 27.072 55.7989 26.848C56.1189 26.624 56.3389 26.304 56.4589 25.888H57.6349C57.4589 26.56 57.1069 27.1 56.5789 27.508C56.0509 27.908 55.3909 28.108 54.5989 28.108C53.9749 28.108 53.4189 27.968 52.9309 27.688C52.4509 27.408 52.0749 27.012 51.8029 26.5C51.5309 25.988 51.3949 25.388 51.3949 24.7ZM60.424 22.324V26.2C60.424 26.52 60.492 26.748 60.628 26.884C60.764 27.012 61 27.076 61.336 27.076H62.14V28H61.156C60.548 28 60.092 27.86 59.788 27.58C59.484 27.3 59.332 26.84 59.332 26.2V22.324H58.48V21.424H59.332V19.768H60.424V21.424H62.14V22.324H60.424ZM72.3263 21.424L68.3663 31.096H67.2383L68.5343 27.928L65.8823 21.424H67.0943L69.1583 26.752L71.1983 21.424H72.3263ZM76.292 28.108C75.676 28.108 75.116 27.968 74.612 27.688C74.116 27.408 73.724 27.012 73.436 26.5C73.156 25.98 73.016 25.38 73.016 24.7C73.016 24.028 73.16 23.436 73.448 22.924C73.744 22.404 74.144 22.008 74.648 21.736C75.152 21.456 75.716 21.316 76.34 21.316C76.964 21.316 77.528 21.456 78.032 21.736C78.536 22.008 78.932 22.4 79.22 22.912C79.516 23.424 79.664 24.02 79.664 24.7C79.664 25.38 79.512 25.98 79.208 26.5C78.912 27.012 78.508 27.408 77.996 27.688C77.484 27.968 76.916 28.108 76.292 28.108ZM76.292 27.148C76.684 27.148 77.052 27.056 77.396 26.872C77.74 26.688 78.016 26.412 78.224 26.044C78.44 25.676 78.548 25.228 78.548 24.7C78.548 24.172 78.444 23.724 78.236 23.356C78.028 22.988 77.756 22.716 77.42 22.54C77.084 22.356 76.72 22.264 76.328 22.264C75.928 22.264 75.56 22.356 75.224 22.54C74.896 22.716 74.632 22.988 74.432 23.356C74.232 23.724 74.132 24.172 74.132 24.7C74.132 25.236 74.228 25.688 74.42 26.056C74.62 26.424 74.884 26.7 75.212 26.884C75.54 27.06 75.9 27.148 76.292 27.148ZM86.9318 21.424V28H85.8398V27.028C85.6318 27.364 85.3398 27.628 84.9638 27.82C84.5958 28.004 84.1878 28.096 83.7398 28.096C83.2278 28.096 82.7678 27.992 82.3598 27.784C81.9518 27.568 81.6278 27.248 81.3878 26.824C81.1558 26.4 81.0398 25.884 81.0398 25.276V21.424H82.1198V25.132C82.1198 25.78 82.2838 26.28 82.6118 26.632C82.9398 26.976 83.3878 27.148 83.9558 27.148C84.5398 27.148 84.9998 26.968 85.3358 26.608C85.6718 26.248 85.8398 25.724 85.8398 25.036V21.424H86.9318ZM89.8676 22.492C90.0596 22.116 90.3316 21.824 90.6836 21.616C91.0436 21.408 91.4796 21.304 91.9916 21.304V22.432H91.7036C90.4796 22.432 89.8676 23.096 89.8676 24.424V28H88.7756V21.424H89.8676V22.492ZM96.0433 24.688C96.0433 24.016 96.1793 23.428 96.4513 22.924C96.7233 22.412 97.0953 22.016 97.5673 21.736C98.0473 21.456 98.5793 21.316 99.1633 21.316C99.7393 21.316 100.239 21.44 100.663 21.688C101.087 21.936 101.403 22.248 101.611 22.624V21.424H102.715V28H101.611V26.776C101.395 27.16 101.071 27.48 100.639 27.736C100.215 27.984 99.7193 28.108 99.1513 28.108C98.5673 28.108 98.0393 27.964 97.5673 27.676C97.0953 27.388 96.7233 26.984 96.4513 26.464C96.1793 25.944 96.0433 25.352 96.0433 24.688ZM101.611 24.7C101.611 24.204 101.511 23.772 101.311 23.404C101.111 23.036 100.839 22.756 100.495 22.564C100.159 22.364 99.7873 22.264 99.3793 22.264C98.9713 22.264 98.5993 22.36 98.2633 22.552C97.9273 22.744 97.6593 23.024 97.4593 23.392C97.2593 23.76 97.1593 24.192 97.1593 24.688C97.1593 25.192 97.2593 25.632 97.4593 26.008C97.6593 26.376 97.9273 26.66 98.2633 26.86C98.5993 27.052 98.9713 27.148 99.3793 27.148C99.7873 27.148 100.159 27.052 100.495 26.86C100.839 26.66 101.111 26.376 101.311 26.008C101.511 25.632 101.611 25.196 101.611 24.7ZM104.153 24.688C104.153 24.016 104.289 23.428 104.561 22.924C104.833 22.412 105.205 22.016 105.677 21.736C106.157 21.456 106.693 21.316 107.285 21.316C107.797 21.316 108.273 21.436 108.713 21.676C109.153 21.908 109.489 22.216 109.721 22.6V19.12H110.825V28H109.721V26.764C109.505 27.156 109.185 27.48 108.761 27.736C108.337 27.984 107.841 28.108 107.273 28.108C106.689 28.108 106.157 27.964 105.677 27.676C105.205 27.388 104.833 26.984 104.561 26.464C104.289 25.944 104.153 25.352 104.153 24.688ZM109.721 24.7C109.721 24.204 109.621 23.772 109.421 23.404C109.221 23.036 108.949 22.756 108.605 22.564C108.269 22.364 107.897 22.264 107.489 22.264C107.081 22.264 106.709 22.36 106.373 22.552C106.037 22.744 105.769 23.024 105.569 23.392C105.369 23.76 105.269 24.192 105.269 24.688C105.269 25.192 105.369 25.632 105.569 26.008C105.769 26.376 106.037 26.66 106.373 26.86C106.709 27.052 107.081 27.148 107.489 27.148C107.897 27.148 108.269 27.052 108.605 26.86C108.949 26.66 109.221 26.376 109.421 26.008C109.621 25.632 109.721 25.196 109.721 24.7ZM112.262 24.688C112.262 24.016 112.398 23.428 112.67 22.924C112.942 22.412 113.314 22.016 113.786 21.736C114.266 21.456 114.802 21.316 115.394 21.316C115.906 21.316 116.382 21.436 116.822 21.676C117.262 21.908 117.598 22.216 117.83 22.6V19.12H118.934V28H117.83V26.764C117.614 27.156 117.294 27.48 116.87 27.736C116.446 27.984 115.95 28.108 115.382 28.108C114.798 28.108 114.266 27.964 113.786 27.676C113.314 27.388 112.942 26.984 112.67 26.464C112.398 25.944 112.262 25.352 112.262 24.688ZM117.83 24.7C117.83 24.204 117.73 23.772 117.53 23.404C117.33 23.036 117.058 22.756 116.714 22.564C116.378 22.364 116.006 22.264 115.598 22.264C115.19 22.264 114.818 22.36 114.482 22.552C114.146 22.744 113.878 23.024 113.678 23.392C113.478 23.76 113.378 24.192 113.378 24.688C113.378 25.192 113.478 25.632 113.678 26.008C113.878 26.376 114.146 26.66 114.482 26.86C114.818 27.052 115.19 27.148 115.598 27.148C116.006 27.148 116.378 27.052 116.714 26.86C117.058 26.66 117.33 26.376 117.53 26.008C117.73 25.632 117.83 25.196 117.83 24.7ZM121.871 22.492C122.063 22.116 122.335 21.824 122.687 21.616C123.047 21.408 123.483 21.304 123.995 21.304V22.432H123.707C122.483 22.432 121.871 23.096 121.871 24.424V28H120.779V21.424H121.871V22.492ZM131.256 24.46C131.256 24.668 131.244 24.888 131.22 25.12H125.964C126.004 25.768 126.224 26.276 126.624 26.644C127.032 27.004 127.524 27.184 128.1 27.184C128.572 27.184 128.964 27.076 129.276 26.86C129.596 26.636 129.82 26.34 129.948 25.972H131.124C130.948 26.604 130.596 27.12 130.068 27.52C129.54 27.912 128.884 28.108 128.1 28.108C127.476 28.108 126.916 27.968 126.42 27.688C125.932 27.408 125.548 27.012 125.268 26.5C124.988 25.98 124.848 25.38 124.848 24.7C124.848 24.02 124.984 23.424 125.256 22.912C125.528 22.4 125.908 22.008 126.396 21.736C126.892 21.456 127.46 21.316 128.1 21.316C128.724 21.316 129.276 21.452 129.756 21.724C130.236 21.996 130.604 22.372 130.86 22.852C131.124 23.324 131.256 23.86 131.256 24.46ZM130.128 24.232C130.128 23.816 130.036 23.46 129.852 23.164C129.668 22.86 129.416 22.632 129.096 22.48C128.784 22.32 128.436 22.24 128.052 22.24C127.5 22.24 127.028 22.416 126.636 22.768C126.252 23.12 126.032 23.608 125.976 24.232H130.128ZM135.025 28.108C134.521 28.108 134.069 28.024 133.669 27.856C133.269 27.68 132.953 27.44 132.721 27.136C132.489 26.824 132.361 26.468 132.337 26.068H133.465C133.497 26.396 133.649 26.664 133.921 26.872C134.201 27.08 134.565 27.184 135.013 27.184C135.429 27.184 135.757 27.092 135.997 26.908C136.237 26.724 136.357 26.492 136.357 26.212C136.357 25.924 136.229 25.712 135.973 25.576C135.717 25.432 135.321 25.292 134.785 25.156C134.297 25.028 133.897 24.9 133.585 24.772C133.281 24.636 133.017 24.44 132.793 24.184C132.577 23.92 132.469 23.576 132.469 23.152C132.469 22.816 132.569 22.508 132.769 22.228C132.969 21.948 133.253 21.728 133.621 21.568C133.989 21.4 134.409 21.316 134.881 21.316C135.609 21.316 136.197 21.5 136.645 21.868C137.093 22.236 137.333 22.74 137.365 23.38H136.273C136.249 23.036 136.109 22.76 135.853 22.552C135.605 22.344 135.269 22.24 134.845 22.24C134.453 22.24 134.141 22.324 133.909 22.492C133.677 22.66 133.561 22.88 133.561 23.152C133.561 23.368 133.629 23.548 133.765 23.692C133.909 23.828 134.085 23.94 134.293 24.028C134.509 24.108 134.805 24.2 135.181 24.304C135.653 24.432 136.037 24.56 136.333 24.688C136.629 24.808 136.881 24.992 137.089 25.24C137.305 25.488 137.417 25.812 137.425 26.212C137.425 26.572 137.325 26.896 137.125 27.184C136.925 27.472 136.641 27.7 136.273 27.868C135.913 28.028 135.497 28.108 135.025 28.108ZM141.295 28.108C140.791 28.108 140.339 28.024 139.939 27.856C139.539 27.68 139.223 27.44 138.991 27.136C138.759 26.824 138.631 26.468 138.607 26.068H139.735C139.767 26.396 139.919 26.664 140.191 26.872C140.471 27.08 140.835 27.184 141.283 27.184C141.699 27.184 142.027 27.092 142.267 26.908C142.507 26.724 142.627 26.492 142.627 26.212C142.627 25.924 142.499 25.712 142.243 25.576C141.987 25.432 141.591 25.292 141.055 25.156C140.567 25.028 140.167 24.9 139.855 24.772C139.551 24.636 139.287 24.44 139.063 24.184C138.847 23.92 138.739 23.576 138.739 23.152C138.739 22.816 138.839 22.508 139.039 22.228C139.239 21.948 139.523 21.728 139.891 21.568C140.259 21.4 140.679 21.316 141.151 21.316C141.879 21.316 142.467 21.5 142.915 21.868C143.363 22.236 143.603 22.74 143.635 23.38H142.543C142.519 23.036 142.379 22.76 142.123 22.552C141.875 22.344 141.539 22.24 141.115 22.24C140.723 22.24 140.411 22.324 140.179 22.492C139.947 22.66 139.831 22.88 139.831 23.152C139.831 23.368 139.899 23.548 140.035 23.692C140.179 23.828 140.355 23.94 140.563 24.028C140.779 24.108 141.075 24.2 141.451 24.304C141.923 24.432 142.307 24.56 142.603 24.688C142.899 24.808 143.151 24.992 143.359 25.24C143.575 25.488 143.687 25.812 143.695 26.212C143.695 26.572 143.595 26.896 143.395 27.184C143.195 27.472 142.911 27.7 142.543 27.868C142.183 28.028 141.767 28.108 141.295 28.108Z" fill="black"/>
<path d="M34.596 5.242V15H33.322V10.576H28.352V15H27.078V5.242H28.352V9.526H33.322V5.242H34.596ZM43.7714 10.87C43.7714 11.1127 43.7574 11.3693 43.7294 11.64H37.5974C37.644 12.396 37.9007 12.9887 38.3674 13.418C38.8434 13.838 39.4174 14.048 40.0894 14.048C40.64 14.048 41.0974 13.922 41.4614 13.67C41.8347 13.4087 42.096 13.0633 42.2454 12.634H43.6174C43.412 13.3713 43.0014 13.9733 42.3854 14.44C41.7694 14.8973 41.004 15.126 40.0894 15.126C39.3614 15.126 38.708 14.9627 38.1294 14.636C37.56 14.3093 37.112 13.8473 36.7854 13.25C36.4587 12.6433 36.2954 11.9433 36.2954 11.15C36.2954 10.3567 36.454 9.66133 36.7714 9.064C37.0887 8.46667 37.532 8.00933 38.1014 7.692C38.68 7.36533 39.3427 7.202 40.0894 7.202C40.8174 7.202 41.4614 7.36067 42.0214 7.678C42.5814 7.99533 43.0107 8.434 43.3094 8.994C43.6174 9.54467 43.7714 10.17 43.7714 10.87ZM42.4554 10.604C42.4554 10.1187 42.348 9.70333 42.1334 9.358C41.9187 9.00333 41.6247 8.73733 41.2514 8.56C40.8874 8.37333 40.4814 8.28 40.0334 8.28C39.3894 8.28 38.8387 8.48533 38.3814 8.896C37.9334 9.30667 37.6767 9.876 37.6114 10.604H42.4554ZM46.727 4.64V15H45.453V4.64H46.727ZM50.1723 4.64V15H48.8983V4.64H50.1723ZM55.6896 15.126C54.971 15.126 54.3176 14.9627 53.7296 14.636C53.151 14.3093 52.6936 13.8473 52.3576 13.25C52.031 12.6433 51.8676 11.9433 51.8676 11.15C51.8676 10.366 52.0356 9.67533 52.3716 9.078C52.717 8.47133 53.1836 8.00933 53.7716 7.692C54.3596 7.36533 55.0176 7.202 55.7456 7.202C56.4736 7.202 57.1316 7.36533 57.7196 7.692C58.3076 8.00933 58.7696 8.46667 59.1056 9.064C59.451 9.66133 59.6236 10.3567 59.6236 11.15C59.6236 11.9433 59.4463 12.6433 59.0916 13.25C58.7463 13.8473 58.275 14.3093 57.6776 14.636C57.0803 14.9627 56.4176 15.126 55.6896 15.126ZM55.6896 14.006C56.147 14.006 56.5763 13.8987 56.9776 13.684C57.379 13.4693 57.701 13.1473 57.9436 12.718C58.1956 12.2887 58.3216 11.766 58.3216 11.15C58.3216 10.534 58.2003 10.0113 57.9576 9.582C57.715 9.15267 57.3976 8.83533 57.0056 8.63C56.6136 8.41533 56.189 8.308 55.7316 8.308C55.265 8.308 54.8356 8.41533 54.4436 8.63C54.061 8.83533 53.753 9.15267 53.5196 9.582C53.2863 10.0113 53.1696 10.534 53.1696 11.15C53.1696 11.7753 53.2816 12.3027 53.5056 12.732C53.739 13.1613 54.047 13.4833 54.4296 13.698C54.8123 13.9033 55.2323 14.006 55.6896 14.006Z" fill="black"/>
</svg>
