<svg width="23" height="22" viewBox="0 0 23 22" fill="none" xmlns="http://www.w3.org/2000/svg">
<path d="M0 20.2635V18.9399C0.134419 18.4449 0.405057 18.0657 0.884524 17.8791C0.889775 17.8605 0.893587 17.8416 0.895925 17.8224C0.895925 14.9655 0.895925 12.1084 0.895925 9.25109C0.895925 9.19561 0.884523 9.11514 0.848518 9.08832C0.382853 8.74507 0.136819 8.26282 0 7.71412V4.9755C0.150021 4.63286 0.253835 4.25792 0.459064 3.9537C1.17196 2.89287 1.92387 1.8601 2.65297 0.810249C3.03222 0.261548 3.54049 -0.000608607 4.19639 1.06087e-06C9.06186 1.06087e-06 13.9271 1.06087e-06 18.7922 1.06087e-06C19.4571 1.06087e-06 19.9696 0.266426 20.3524 0.821223C21.0725 1.8601 21.7988 2.89287 22.5313 3.91955C22.8427 4.34269 23.0071 4.85879 22.9988 5.38702C22.9922 6.04851 22.9988 6.71 22.9988 7.37149C22.9988 8.04212 22.7348 8.59082 22.2313 9.02613C22.1583 9.09268 22.1134 9.18527 22.1059 9.28463C22.0993 12.0891 22.1017 14.8972 22.0969 17.7029C22.0969 17.8419 22.1521 17.8944 22.2619 17.9535C22.7378 18.2114 22.982 18.6241 22.9976 19.1728C23.0042 19.4167 22.9976 19.6606 22.9976 19.9044C22.9976 20.6616 22.664 20.9982 21.9139 20.9982C14.9829 20.9982 8.05172 21.0002 1.12036 21.0043C0.564679 21 0.180025 20.811 0 20.2635ZM0.900126 20.0654H22.0999V19.346C22.0999 18.8467 21.9667 18.7119 21.4728 18.7119H7.41583C7.33362 18.7119 7.25081 18.7156 7.1692 18.7089C7.05581 18.7034 6.94863 18.6546 6.86908 18.5724C6.78954 18.4901 6.74349 18.3803 6.74014 18.265C6.7374 18.1455 6.7814 18.0298 6.86249 17.9431C6.94359 17.8565 7.05517 17.8061 7.1728 17.8029C7.40383 17.7919 7.63667 17.7992 7.8683 17.7992H8.44858V17.4889C8.44858 15.6258 8.44858 13.7626 8.44858 11.8995C8.44858 10.9423 8.99706 10.379 9.93679 10.3753C10.9769 10.3717 12.0171 10.3717 13.0572 10.3753C13.9994 10.3753 14.5484 10.9399 14.549 11.8952C14.549 13.7649 14.549 15.6357 14.549 17.5078V17.7864H21.183V9.45411C20.4533 9.51142 19.8628 9.24805 19.3887 8.70544C18.959 9.2011 18.4394 9.46509 17.8009 9.46204C17.1624 9.45899 16.6541 9.18403 16.2371 8.71276C15.4204 9.64921 14.0264 9.77053 13.0674 8.71276C12.6528 9.19379 12.1343 9.46082 11.4976 9.46082C10.8609 9.46082 10.3454 9.1883 9.91879 8.70544C9.48853 9.19318 8.97125 9.46326 8.33396 9.46082C7.69667 9.45838 7.1836 9.18464 6.76594 8.71154C5.87602 9.71993 4.46942 9.70103 3.6011 8.71154C3.12884 9.26024 2.52875 9.51203 1.81465 9.45899V17.7992C2.25931 17.7992 2.68597 17.795 3.11263 17.7992C3.40788 17.8029 3.6083 18.0126 3.5927 18.2833C3.5765 18.5351 3.38507 18.707 3.10183 18.7101C2.53295 18.7137 1.96167 18.7101 1.39519 18.7101C1.10115 18.7101 0.915128 18.8796 0.903126 19.1576C0.891725 19.4557 0.900126 19.752 0.900126 20.0654ZM13.6519 17.7877V17.5554C13.6519 15.6691 13.6519 13.7828 13.6519 11.8964C13.6519 11.4514 13.4959 11.2868 13.0596 11.2868C12.0195 11.2868 10.9793 11.2868 9.93919 11.2868C9.50353 11.2868 9.3493 11.4483 9.3493 11.8964C9.3493 13.7819 9.3493 15.668 9.3493 17.5548C9.3493 17.6285 9.35531 17.7023 9.35951 17.7852L13.6519 17.7877ZM4.05597 5.28277C4.05597 6.03388 4.05117 6.75512 4.06017 7.47757C4.06728 7.61412 4.10008 7.74802 4.15678 7.87203C4.25952 8.11092 4.43975 8.30682 4.66743 8.42708C4.8951 8.54734 5.15646 8.58469 5.40795 8.53291C5.92103 8.43719 6.29548 7.98421 6.31228 7.40929C6.32668 6.90083 6.31588 6.39176 6.31648 5.88512V5.28704L4.05597 5.28277ZM16.6985 5.28277C16.6985 6.05461 16.6703 6.80694 16.7075 7.55561C16.7363 8.12199 17.2254 8.53108 17.7829 8.54571C18.0507 8.55585 18.3132 8.46736 18.5219 8.29653C18.7306 8.1257 18.8716 7.88401 18.9188 7.61597C18.9229 7.60143 18.9255 7.58652 18.9266 7.57146C18.9266 6.81425 18.9266 6.05705 18.9266 5.28277H16.6985ZM0.901326 5.28277C0.901326 6.03876 0.885124 6.76731 0.906127 7.49525C0.922929 8.06224 1.3988 8.51523 1.95627 8.54632C2.53235 8.57863 3.09103 8.18052 3.12704 7.61536C3.17504 6.84535 3.13904 6.06985 3.13904 5.28277H0.901326ZM10.3724 5.28277C10.3724 5.99913 10.3694 6.68988 10.3724 7.38003C10.376 8.05066 10.8567 8.54815 11.4904 8.55181C12.1241 8.55546 12.6192 8.0531 12.624 7.3721C12.6276 6.73439 12.624 6.09668 12.624 5.45896C12.624 5.40165 12.6126 5.34496 12.6066 5.28277H10.3724ZM19.846 5.28643C19.846 6.00583 19.8388 6.71122 19.846 7.416C19.8475 7.71917 19.9675 8.00932 20.1796 8.22261C20.3916 8.4359 20.6784 8.55487 20.9768 8.55333C21.2752 8.5518 21.5608 8.42989 21.7708 8.21442C21.9807 7.99896 22.0978 7.70759 22.0963 7.40441C22.1029 6.78926 22.0963 6.1741 22.0963 5.55956V5.28643H19.846ZM7.21541 5.28277C7.21541 5.99364 7.20941 6.685 7.21541 7.37271C7.22141 8.06041 7.70267 8.55486 8.34836 8.5512C8.99405 8.54754 9.46692 8.04395 9.47112 7.35747C9.47532 6.72707 9.47112 6.09667 9.47112 5.4675C9.47112 5.40958 9.46212 5.35166 9.45672 5.2846L7.21541 5.28277ZM15.7834 5.29252H13.5247C13.5247 5.99608 13.5211 6.67891 13.5247 7.36235C13.5283 8.04578 14.0108 8.55059 14.6522 8.55181C15.2937 8.55303 15.772 8.06102 15.781 7.36783C15.7882 6.79109 15.781 6.21373 15.781 5.63699L15.7834 5.29252ZM1.28418 4.35486C1.96287 4.35486 2.60436 4.35486 3.24285 4.34937C3.29026 4.34937 3.35207 4.2817 3.38147 4.23048C3.96955 3.20015 4.55544 2.16838 5.13912 1.1352C5.17452 1.07423 5.20693 1.00656 5.25613 0.913893C4.89188 0.913893 4.55764 0.923038 4.22459 0.913893C3.85434 0.90048 3.5855 1.04863 3.37247 1.35651C2.72858 2.28869 2.07269 3.21234 1.4222 4.13964C1.38019 4.19573 1.34479 4.25914 1.28418 4.35486ZM17.7511 0.920599C17.7703 0.968153 17.7745 0.981565 17.7817 0.996198C18.3962 2.08141 19.0083 3.16783 19.6293 4.24877C19.656 4.28047 19.689 4.30604 19.7262 4.3238C19.7633 4.34157 19.8037 4.35111 19.8448 4.35181C20.4052 4.36034 20.9663 4.35668 21.525 4.35486C21.5883 4.34995 21.6512 4.34099 21.7134 4.32803C20.9621 3.26416 20.2384 2.22346 19.4931 1.20105C19.3675 1.05152 19.1909 0.955891 18.9987 0.933402C18.593 0.894383 18.1825 0.920599 17.7511 0.920599ZM4.35721 4.35425C5.0443 4.35425 5.6996 4.35729 6.35429 4.34754C6.40109 4.34754 6.4659 4.26158 6.48931 4.20183C6.88936 3.18816 7.28442 2.17204 7.67447 1.15349C7.70328 1.08033 7.72308 1.00412 7.75248 0.909625C7.31502 0.909625 6.90396 0.91816 6.49231 0.904747C6.33988 0.89987 6.26907 0.960837 6.19886 1.08765C5.62758 2.10152 5.04971 3.11174 4.47422 4.12379C4.44062 4.18903 4.40821 4.25548 4.35721 4.35425ZM15.2469 0.913893C15.2673 0.984614 15.2787 1.03583 15.2973 1.08338C15.7012 2.12774 16.1098 3.17027 16.5071 4.21707C16.5581 4.35181 16.6385 4.35729 16.7471 4.35668C17.3004 4.35668 17.8537 4.35668 18.407 4.35668C18.4766 4.35668 18.5456 4.34754 18.647 4.34022C18.0025 3.20258 17.373 2.10518 16.7423 1.0029C16.7269 0.979517 16.7067 0.959785 16.6831 0.945054C16.6595 0.930324 16.633 0.920943 16.6055 0.917551C16.1573 0.911454 15.7102 0.913893 15.2469 0.913893ZM15.6022 4.35547C15.1563 3.21112 14.7291 2.11067 14.2964 1.01266C14.2842 0.988302 14.2666 0.967116 14.2451 0.950733C14.2236 0.93435 14.1986 0.923206 14.1722 0.91816C13.7617 0.911454 13.3519 0.914502 12.921 0.914502C12.9732 1.24555 13.0212 1.55221 13.0698 1.85827C13.1928 2.63072 13.3129 3.40316 13.4437 4.175C13.4551 4.24146 13.5379 4.34754 13.5889 4.34815C14.2472 4.36095 14.9049 4.35547 15.6022 4.35547ZM7.40263 4.339C7.48424 4.34632 7.54245 4.35547 7.60006 4.35547C8.17614 4.35547 8.75282 4.34876 9.3289 4.36095C9.49993 4.364 9.54193 4.28962 9.56474 4.14147C9.66135 3.50315 9.76756 2.86666 9.86898 2.22955C9.93739 1.79791 10.0034 1.36627 10.0736 0.913893C9.66375 0.913893 9.2827 0.921209 8.90224 0.909625C8.76362 0.905967 8.71022 0.963276 8.66221 1.08399C8.40357 1.76377 8.13654 2.43989 7.8725 3.11784C7.72008 3.51839 7.56586 3.92016 7.40383 4.339H7.40263ZM10.9863 0.924866C10.8063 2.06251 10.6233 3.19649 10.4403 4.339H12.5568C12.3719 3.18795 12.1913 2.05885 12.0089 0.924866H10.9863Z" fill="white"/>
<path d="M5.12711 14.9387C4.78267 14.9387 4.43882 14.9417 4.09497 14.9387C3.26625 14.9307 2.69978 14.3564 2.69558 13.5194C2.69318 12.9418 2.69318 12.3643 2.69558 11.7867C2.70038 11.0118 3.21165 10.4259 3.97615 10.3912C4.74066 10.3564 5.50277 10.3564 6.26427 10.3912C7.04438 10.4259 7.54485 11.0075 7.54905 11.8038C7.55185 12.3813 7.55185 12.9589 7.54905 13.5364C7.54365 14.3516 6.98317 14.9265 6.18146 14.9387C5.83041 14.9436 5.47876 14.9387 5.12711 14.9387ZM5.10911 14.0242C5.46016 14.0242 5.81181 14.0284 6.16346 14.0242C6.4833 14.0193 6.64832 13.8529 6.65012 13.5303C6.65412 12.9528 6.65412 12.3754 6.65012 11.7983C6.65012 11.4867 6.4929 11.2996 6.19226 11.2941C5.48176 11.2819 4.77126 11.2819 4.06077 11.2941C3.75772 11.299 3.5963 11.4843 3.5945 11.7916C3.5901 12.3691 3.5901 12.9465 3.5945 13.5236C3.5945 13.8474 3.76132 14.0187 4.07457 14.0248C4.42081 14.0309 4.76466 14.026 5.10911 14.026V14.0242Z" fill="white"/>
<path d="M17.8777 14.9387C17.526 14.9387 17.1744 14.9429 16.8233 14.9387C16.0186 14.9277 15.4552 14.3558 15.4492 13.5431C15.4452 12.9505 15.4452 12.3577 15.4492 11.7647C15.4552 11.0222 15.955 10.4332 16.6817 10.3979C17.4798 10.3589 18.2827 10.3595 19.0821 10.3979C19.7926 10.4338 20.2948 11.0283 20.302 11.7562C20.308 12.3659 20.3092 12.9719 20.302 13.5797C20.3029 13.9337 20.167 14.2738 19.9236 14.527C19.6802 14.7802 19.3487 14.9263 19.0004 14.9338C18.6266 14.9466 18.2527 14.9338 17.8783 14.9338L17.8777 14.9387ZM17.8711 14.0242C18.2155 14.0242 18.5594 14.0278 18.9032 14.0242C19.2345 14.0197 19.4013 13.8512 19.4037 13.5188C19.4073 12.9497 19.4073 12.3807 19.4037 11.8117C19.4037 11.488 19.2441 11.3008 18.932 11.2959C18.2291 11.2841 17.5262 11.2841 16.8233 11.2959C16.5077 11.3002 16.3493 11.4831 16.3475 11.8056C16.3447 12.3746 16.3447 12.9436 16.3475 13.5127C16.3475 13.862 16.5101 14.0217 16.8617 14.0254C17.1984 14.029 17.535 14.026 17.8711 14.026V14.0242Z" fill="white"/>
<path d="M5.16072 18.7101C5.07172 18.7087 4.98516 18.6803 4.91209 18.6287C4.83901 18.5771 4.78275 18.5045 4.75048 18.4202C4.7182 18.3359 4.71139 18.2438 4.73092 18.1556C4.75044 18.0674 4.7954 17.987 4.86006 17.9249C4.92473 17.8628 5.00616 17.8216 5.09395 17.8067C5.18174 17.7918 5.27191 17.8039 5.35294 17.8413C5.43397 17.8787 5.50217 17.9398 5.54885 18.0168C5.59553 18.0938 5.61855 18.1832 5.61498 18.2736C5.60883 18.3916 5.55824 18.5028 5.47369 18.584C5.38914 18.6653 5.2771 18.7104 5.16072 18.7101Z" fill="white"/>
</svg>
