<svg width="38" height="40" viewBox="0 0 38 40" fill="none" xmlns="http://www.w3.org/2000/svg">
<path d="M38 3.69214V36.6751C37.9858 36.6946 37.9606 36.714 37.9574 36.7351C37.658 38.5703 36.1025 39.7667 34.2366 39.7424C30.3423 39.6922 26.4465 39.7278 22.5507 39.7278C16.2562 39.7278 9.96334 39.7359 3.66888 39.7132C3.09071 39.7189 2.51783 39.5996 1.98731 39.3631C0.636696 38.7146 0.00157598 37.5554 0 36.0299V4.35683C0 4.25469 0 4.15256 0 4.05204C0.019491 3.55446 0.140062 3.06659 0.353951 2.61984C0.567839 2.17309 0.870305 1.77737 1.24187 1.45815C1.74303 1.0107 2.34506 0.809678 2.96284 0.631348H35.0309C35.0847 0.65849 35.1406 0.681255 35.1979 0.699437C36.0285 0.874525 36.7581 1.26199 37.2262 1.98666C37.5603 2.50706 37.7478 3.12148 38 3.69214ZM1.72885 20.1423C1.72885 25.3463 1.72885 30.5498 1.72885 35.7527C1.72851 35.9693 1.74009 36.1858 1.76352 36.4012C1.797 36.7445 1.93182 37.0692 2.14987 37.3314C2.36792 37.5937 2.65876 37.781 2.98333 37.8683C3.24926 37.9282 3.52124 37.9549 3.79338 37.9478C13.9332 37.9478 24.072 37.9478 34.2098 37.9478C34.3952 37.9466 34.5805 37.9342 34.7645 37.9105C35.098 37.8741 35.4127 37.7336 35.6663 37.5079C35.9198 37.2821 36.1001 36.9819 36.1829 36.6476C36.24 36.3613 36.2648 36.0692 36.257 35.777C36.257 25.383 36.257 14.9891 36.257 4.59514C36.2595 4.37833 36.2469 4.16161 36.2191 3.94667C36.1906 3.62125 36.0671 3.3123 35.8649 3.06033C35.6627 2.80835 35.3912 2.62511 35.086 2.53462C34.802 2.44979 34.5069 2.41096 34.2113 2.41951C24.0589 2.41951 13.9054 2.41951 3.75083 2.41951C3.56577 2.41869 3.38089 2.4317 3.19766 2.45842C2.88811 2.48892 2.59425 2.61295 2.35308 2.81489C2.1119 3.01682 1.93419 3.28764 1.84232 3.59325C1.7556 3.89736 1.7152 4.21346 1.72255 4.53029C1.7236 9.73538 1.7257 14.9394 1.72885 20.1423Z" fill="white"/>
<path d="M19.7092 17.4592C19.5406 16.3114 19.736 15.3193 20.4215 14.4617C20.7219 14.0768 21.0949 13.7585 21.5182 13.5261C21.9415 13.2937 22.4062 13.1521 22.8842 13.1096C23.3622 13.0672 23.8436 13.1249 24.2993 13.2793C24.755 13.4336 25.1756 13.6815 25.5356 14.0077C25.61 14.0879 25.7063 14.1431 25.8118 14.1659C25.9173 14.1888 26.027 14.1783 26.1266 14.1358C26.7381 13.9137 27.3448 13.6786 27.9752 13.4403C27.7372 14.2039 27.2471 14.7778 26.612 15.2415L26.6498 15.3274L28.4338 14.841C28.0912 15.4104 27.6525 15.9122 27.1383 16.3228C27.0201 16.407 26.9248 16.521 26.8614 16.6537C26.7979 16.7865 26.7685 16.9337 26.7759 17.0815C26.7767 19.4533 25.9751 21.7515 24.5085 23.5817C23.0419 25.4119 21.0019 26.66 18.7384 27.1118C16.2779 27.6287 13.7185 27.1903 11.5535 25.8813C11.4809 25.8389 11.4159 25.7841 11.3612 25.7192C13.1716 25.8759 14.9745 25.3402 16.4249 24.2147C14.8378 24.0331 13.763 23.255 13.1594 21.6873H14.5605C12.9278 21.0485 12.0216 19.904 11.9191 18.1045L13.3123 18.5C11.8451 16.6908 11.5456 15.1474 12.4518 13.7548C14.3587 15.9953 16.7495 17.2501 19.7092 17.4592Z" fill="white"/>
</svg>
