<svg width="16" height="20" viewBox="0 0 16 20" fill="none" xmlns="http://www.w3.org/2000/svg">
<path d="M11.9346 9.58322C12.3924 9.97364 12.8702 10.3241 13.2852 10.7455C14.4566 11.9377 15.1285 13.4386 15.5374 15.089C15.875 16.4546 16.0085 17.8476 15.9996 19.2579C15.9968 19.7002 15.7215 19.9911 15.3021 19.9917C13.5963 19.9917 11.8887 19.9917 10.1792 19.9917C7.04925 19.9917 3.91878 19.9845 0.788306 20C0.34777 20 -0.00766169 19.6883 0.000125561 19.1447C0.0284934 17.1747 0.264335 15.2512 1.00802 13.4296C1.65325 11.8495 2.61831 10.559 4.02669 9.68157C4.05005 9.66667 4.07008 9.64522 4.10623 9.61541C2.91534 8.17294 2.43753 6.50218 2.77127 4.60849C3.02102 3.19583 3.71131 2.05258 4.77371 1.16981C6.8529 -0.558766 9.84821 -0.349548 11.7522 1.65084C13.6406 3.63274 14.0183 7.1191 11.9346 9.58322ZM14.6518 18.5551C14.6307 18.2374 14.6135 17.9352 14.5895 17.633C14.4978 16.4665 14.2881 15.3269 13.877 14.2355C13.2841 12.6637 12.3457 11.4233 10.8884 10.683C10.841 10.6559 10.7877 10.643 10.7341 10.6456C10.6804 10.6483 10.6284 10.6663 10.5836 10.6979C8.86257 11.6802 7.14085 11.6802 5.41838 10.6979C5.37317 10.6672 5.32107 10.6503 5.2676 10.6488C5.21414 10.6474 5.1613 10.6614 5.11468 10.6895C4.005 11.2516 3.17065 12.126 2.56825 13.2621C1.98142 14.3678 1.66604 15.5701 1.50585 16.8212C1.43242 17.3916 1.3946 17.9674 1.33898 18.5557L14.6518 18.5551ZM12.0025 5.71598C12.0025 3.36451 10.2014 1.43029 8.00653 1.4285C5.81164 1.42672 4.00666 3.35855 4.005 5.71002C4.00333 8.06148 5.80774 9.9957 8.00097 9.99749C10.1942 9.99928 12.0008 8.06625 12.0025 5.71598Z" fill="white"/>
</svg>
